<?xml version="1.0" standalone="no"?>
<!DOCTYPE svg PUBLIC "-//W3C//DTD SVG 20010904//EN"
 "http://www.w3.org/TR/2001/REC-SVG-20010904/DTD/svg10.dtd">
<svg version="1.0" xmlns="http://www.w3.org/2000/svg"
 width="1181.000000pt" height="1181.000000pt" viewBox="0 0 1181.000000 1181.000000"
 preserveAspectRatio="xMidYMid meet">

<g transform="translate(0.000000,1181.000000) scale(0.100000,-0.100000)"
fill="#000000" stroke="none">
<path d="M5585 11334 c-434 -31 -688 -70 -1045 -159 -546 -136 -1119 -385
-1595 -693 -533 -344 -1018 -796 -1406 -1308 -549 -726 -905 -1580 -1033
-2477 -44 -309 -51 -414 -51 -812 0 -399 7 -505 51 -815 125 -872 470 -1714
992 -2420 189 -255 339 -427 588 -671 311 -306 591 -527 967 -760 43 -27 80
-49 82 -49 3 0 44 -23 92 -52 134 -79 447 -228 644 -306 385 -153 802 -265
1216 -327 445 -66 1044 -72 1515 -15 184 22 204 25 453 76 885 179 1772 624
2460 1234 135 120 414 401 527 531 645 743 1083 1673 1243 2634 85 513 98
1115 34 1635 -188 1547 -1032 2927 -2338 3825 -285 196 -707 421 -1017 544
-501 198 -936 305 -1494 366 -136 15 -756 28 -885 19z m870 -78 c776 -88 1449
-301 2090 -659 88 -49 325 -195 335 -206 3 -3 38 -28 78 -54 399 -262 918
-751 1215 -1147 39 -52 74 -97 78 -100 7 -6 107 -150 170 -246 371 -559 646
-1233 778 -1904 79 -398 96 -586 96 -1055 0 -463 -18 -661 -96 -1055 -76 -383
-167 -682 -318 -1042 -273 -652 -663 -1226 -1187 -1745 -286 -283 -617 -546
-923 -733 -40 -25 -87 -54 -105 -65 -117 -76 -415 -229 -600 -310 -564 -244
-1127 -382 -1779 -435 -222 -19 -752 -8 -982 19 -1015 121 -1889 474 -2695
1090 -69 52 -138 107 -155 121 -16 15 -73 65 -125 110 -270 237 -580 577 -797
875 -201 276 -449 705 -557 962 -14 35 -37 86 -50 116 -26 57 -29 64 -101 262
-132 367 -220 728 -270 1115 -37 288 -45 423 -45 724 0 763 144 1455 453 2171
47 111 227 457 296 570 114 188 252 397 305 462 8 10 33 42 54 71 168 227 478
558 717 766 50 43 104 91 121 106 17 16 96 77 175 137 564 429 1165 727 1843
914 336 92 621 141 1036 179 153 14 783 4 945 -14z"/>
<path d="M5860 10432 c-19 -19 -62 -58 -95 -85 -33 -27 -93 -80 -133 -116 -41
-36 -81 -70 -90 -75 -10 -5 -33 -25 -52 -45 -98 -100 -232 -214 -240 -204 -4
4 -15 31 -25 58 -19 52 -55 115 -66 115 -4 0 -9 -18 -13 -41 -10 -62 -42 -116
-89 -150 -23 -17 -100 -60 -172 -96 -237 -119 -371 -226 -426 -339 l-23 -48
-12 72 c-35 209 -222 427 -505 590 -153 88 -342 146 -415 128 l-28 -7 42 -40
c75 -69 77 -78 74 -374 -4 -293 4 -352 62 -467 l33 -66 -66 25 c-51 20 -90 27
-171 30 -93 4 -119 1 -222 -26 -217 -55 -441 -175 -574 -306 -63 -62 -123
-149 -111 -161 2 -2 23 3 47 11 96 34 150 17 344 -109 214 -139 353 -196 478
-196 l55 0 -68 -69 c-120 -123 -187 -303 -210 -566 -14 -156 -3 -303 33 -423
l21 -73 -48 -142 c-27 -78 -52 -158 -56 -177 -4 -19 -15 -64 -24 -100 -18 -71
-26 -114 -52 -265 -15 -91 -17 -293 -20 -2268 l-3 -2167 2867 2 2868 3 3 2000
c3 2150 -1 2371 -48 2565 -5 19 -18 78 -30 130 -12 52 -25 111 -29 130 -38
163 -202 556 -321 765 -78 139 -114 196 -207 335 -144 215 -201 290 -382 510
-229 276 -764 825 -996 1021 -22 18 -71 64 -110 101 -38 36 -87 79 -107 95
-20 15 -104 87 -186 158 -81 72 -173 151 -203 177 -30 25 -64 54 -76 65 -11
10 -38 32 -60 50 -21 17 -56 47 -78 67 -22 20 -42 35 -45 35 -3 -1 -21 -18
-40 -37z m96 -113 c10 -12 60 -56 109 -98 50 -42 104 -88 120 -102 17 -15 71
-61 120 -104 123 -106 224 -195 255 -225 14 -14 38 -35 54 -48 66 -51 396
-362 559 -527 430 -434 753 -827 987 -1204 192 -310 308 -557 411 -878 48
-152 109 -471 109 -575 l0 -68 -802 -2 -803 -3 0 -110 0 -110 805 -5 805 -5 0
-1390 0 -1390 -850 -5 -850 -5 -3 -112 c-2 -87 0 -113 10 -113 7 0 381 0 830
0 450 0 829 -2 843 -6 l25 -6 0 -434 c0 -339 -3 -436 -12 -439 -7 -3 -515 -4
-1128 -3 -1088 3 -1114 3 -1080 21 75 39 87 47 141 94 77 65 142 144 158 190
7 21 22 58 34 83 13 27 21 65 21 95 1 42 -6 61 -43 120 -44 70 -44 71 -48 175
-8 240 -43 527 -73 605 -36 93 -38 111 -35 285 2 113 8 176 15 178 6 2 18 11
26 20 18 17 16 69 -11 232 -13 82 -17 110 -50 345 -21 145 -49 288 -80 407
-29 113 -107 349 -141 427 -13 29 -24 58 -24 63 0 25 -126 278 -174 350 -100
151 -239 246 -408 279 -64 13 -234 7 -265 -10 -10 -5 -40 -19 -68 -32 -148
-68 -254 -274 -198 -382 31 -61 131 -123 157 -97 5 5 10 48 10 95 1 82 2 86
31 110 36 28 117 42 178 29 34 -7 45 -16 60 -45 24 -50 12 -99 -71 -279 -40
-87 -67 -149 -76 -170 -3 -8 -10 -22 -15 -30 -5 -8 -12 -22 -15 -30 -3 -8 -10
-22 -15 -30 -15 -24 -106 -219 -131 -280 -12 -30 -28 -68 -35 -85 -32 -79
-100 -308 -125 -425 -23 -105 -71 -320 -80 -355 -14 -58 -13 -64 19 -94 l30
-28 2 -184 c2 -167 0 -190 -20 -249 -28 -84 -58 -249 -65 -370 -20 -311 -33
-390 -61 -390 -6 0 -22 -21 -35 -46 -20 -41 -22 -57 -18 -128 3 -45 10 -91 16
-102 6 -10 13 -26 16 -34 15 -40 87 -132 140 -180 22 -19 44 -39 50 -45 25
-22 107 -75 117 -75 6 0 17 -7 25 -15 14 -13 -108 -15 -1095 -15 l-1111 0 -1
608 c-2 2814 0 3592 11 3672 10 72 28 170 55 305 23 114 118 399 171 510 26
56 40 66 249 175 199 104 306 186 360 279 17 28 32 51 35 51 3 0 11 -28 17
-62 34 -175 189 -362 433 -521 166 -107 289 -155 418 -164 45 -3 82 -3 82 1 0
4 -19 27 -43 50 -64 61 -68 87 -65 391 3 283 -3 328 -57 435 -14 27 -25 51
-25 54 0 3 26 -4 58 -15 82 -30 215 -35 327 -14 223 42 489 177 636 324 57 57
118 146 107 157 -2 1 -22 -3 -43 -11 -22 -8 -63 -14 -90 -15 -59 0 -92 16
-269 130 -208 133 -310 177 -438 187 l-78 6 35 26 c162 121 255 390 256 738
l0 158 33 25 c18 14 75 63 126 110 168 153 204 185 265 235 33 27 87 75 120
107 68 65 107 75 141 37z m-2239 -221 c62 -23 217 -114 293 -174 67 -51 177
-163 218 -222 66 -93 92 -234 91 -487 -1 -155 1 -168 24 -219 25 -54 87 -112
169 -160 31 -18 30 -16 -15 33 -99 106 -114 199 -60 353 80 229 239 396 498
525 134 67 165 89 201 148 16 25 32 45 35 45 9 0 27 -99 35 -185 8 -89 -10
-285 -36 -393 -27 -113 -79 -221 -135 -281 -54 -58 -150 -126 -292 -205 -185
-104 -226 -160 -238 -323 l-5 -78 23 68 c32 91 72 146 137 185 87 52 148 66
290 66 99 0 143 -4 210 -22 110 -30 243 -93 359 -171 104 -70 154 -91 217 -91
24 0 44 -2 44 -5 0 -2 -23 -26 -51 -52 -162 -153 -519 -289 -703 -268 -105 11
-173 40 -374 156 -157 91 -210 107 -289 89 -49 -10 -178 -68 -171 -76 2 -1 28
4 58 12 69 18 114 18 177 -1 161 -48 316 -288 352 -546 8 -50 11 -160 9 -265
-3 -178 -3 -180 24 -232 31 -60 29 -61 -63 -32 -74 23 -194 90 -294 166 -176
133 -274 259 -305 394 -7 30 -16 156 -19 280 -6 210 -8 228 -30 270 -26 51
-94 117 -155 151 l-41 23 42 -46 c70 -77 93 -134 93 -227 0 -62 -6 -96 -25
-148 -86 -227 -235 -380 -503 -517 -100 -50 -140 -77 -171 -112 -23 -26 -41
-53 -41 -60 0 -8 -4 -14 -9 -14 -18 0 -41 139 -41 249 0 126 13 232 41 345 55
216 138 309 418 467 62 35 130 78 151 96 53 46 82 119 87 218 l3 80 -13 -45
c-56 -191 -182 -265 -452 -263 -100 0 -148 5 -210 22 -102 27 -245 96 -349
167 -93 65 -138 84 -218 93 l-56 6 71 63 c87 76 305 188 439 226 228 64 339
43 614 -119 205 -120 255 -127 403 -59 83 38 90 51 16 29 -63 -19 -118 -19
-186 1 -44 13 -66 29 -124 88 -77 79 -122 148 -165 255 -53 131 -64 204 -62
436 1 203 1 211 -23 263 -14 30 -25 56 -25 58 0 6 49 -6 107 -28z m2083 -3842
c177 -42 324 -188 435 -431 15 -33 38 -82 50 -110 13 -27 44 -108 69 -180 26
-71 53 -148 61 -170 18 -50 62 -215 85 -320 23 -106 41 -220 85 -535 8 -63 20
-144 27 -179 16 -93 13 -94 -247 -60 l-160 21 -46 52 c-28 30 -71 64 -105 81
-54 28 -67 30 -159 29 -88 0 -106 -3 -150 -26 -53 -28 -121 -89 -130 -119 -3
-10 -18 -20 -33 -23 -106 -22 -242 -36 -313 -34 l-84 3 2 42 c1 22 8 70 17
105 8 34 23 97 32 138 78 350 145 547 267 795 227 459 270 574 247 654 -20 71
-84 111 -179 111 -122 0 -203 -54 -218 -145 -10 -60 -36 -73 -54 -28 -42 109
91 285 249 328 62 17 183 18 252 1z m174 -1878 c52 -14 116 -65 140 -110 53
-99 -60 -210 -216 -211 -129 0 -228 72 -228 167 0 30 9 46 46 86 68 73 158 97
258 68z m431 -183 c101 -12 143 -21 153 -33 8 -10 12 -52 12 -119 0 -301 -132
-546 -444 -823 -161 -142 -194 -209 -145 -289 29 -48 14 -57 -58 -37 -96 28
-175 72 -259 144 -186 162 -322 383 -389 634 -29 108 -60 387 -51 452 7 44 8
45 49 50 88 10 234 27 273 32 l42 6 16 -50 c29 -87 113 -146 243 -173 127 -26
275 37 331 141 12 23 22 50 22 59 0 25 11 32 40 27 14 -3 88 -12 165 -21z
m209 -517 c32 -147 52 -345 59 -577 l2 -46 -62 -7 c-162 -18 -333 -116 -520
-300 -80 -78 -111 -130 -119 -204 -4 -33 -12 -62 -18 -66 -13 -9 -63 -10 -103
-2 -29 6 -31 9 -37 65 -3 33 -15 77 -26 98 -43 86 -251 262 -400 340 -84 44
-138 61 -212 66 -28 2 -52 5 -54 7 -10 11 43 553 57 580 15 29 27 21 39 -24
77 -298 343 -639 581 -746 107 -49 262 -66 319 -37 42 22 37 45 -15 80 -24 17
-52 45 -62 63 -17 31 -17 33 0 65 10 17 43 55 74 82 246 215 395 399 452 558
13 33 39 36 45 5z m-1324 -728 c44 -17 176 -94 190 -110 3 -3 32 -27 66 -52
119 -91 204 -201 204 -263 0 -57 -61 -142 -112 -157 -191 -54 -529 168 -600
394 -24 79 -16 132 28 176 30 30 36 32 103 32 47 0 87 -7 121 -20z m1429 -6
c47 -39 58 -89 37 -168 -23 -83 -63 -147 -137 -218 -202 -193 -435 -254 -531
-140 -84 101 -52 191 121 339 115 98 241 177 331 207 8 2 45 5 82 5 57 1 71
-2 97 -25z m-686 -560 c11 -14 16 -28 13 -31 -6 -6 -297 -6 -303 0 -2 2 6 16
18 30 20 27 23 27 137 27 114 -1 118 -1 135 -26z"/>
<path d="M3575 5656 c-54 -21 -90 -44 -127 -83 -108 -112 -104 -299 9 -406 52
-49 84 -66 160 -82 233 -49 439 190 345 400 -38 84 -106 144 -197 172 -49 15
-149 15 -190 -1z"/>
<path d="M3932 9715 c18 -42 23 -77 28 -210 5 -135 10 -168 28 -209 36 -79 68
-114 140 -150 119 -59 124 -56 46 25 -117 122 -139 168 -155 324 -10 104 -42
191 -87 245 l-22 25 22 -50z"/>
<path d="M4990 9485 c-27 -44 -103 -102 -188 -144 -136 -68 -207 -170 -207
-296 0 -38 4 -88 9 -110 l8 -40 23 91 c41 160 81 222 204 308 88 61 121 97
157 168 30 59 26 74 -6 23z"/>
<path d="M3207 8925 c60 -14 115 -39 238 -110 111 -64 232 -69 322 -14 46 28
122 94 100 86 -86 -32 -141 -41 -237 -42 -104 0 -106 1 -200 45 -89 41 -101
44 -190 47 l-95 2 62 -14z"/>
<path d="M4713 8562 c-45 -16 -169 -99 -160 -108 1 -2 34 7 72 19 54 17 94 22
175 22 103 -1 107 -1 191 -43 102 -50 172 -65 249 -53 34 5 44 9 25 10 -63 2
-137 29 -218 79 -140 86 -238 108 -334 74z"/>
<path d="M3868 8430 c-3 -8 -13 -46 -22 -84 -33 -134 -85 -213 -184 -282 -112
-79 -159 -133 -192 -220 -8 -21 4 -11 48 37 45 48 83 77 152 114 153 83 220
175 219 301 0 77 -13 157 -21 134z"/>
<path d="M4259 8194 c71 -64 136 -152 155 -212 8 -26 20 -92 26 -147 11 -103
37 -177 79 -225 l22 -25 -17 40 c-13 29 -19 83 -23 200 -6 148 -9 165 -35 223
-33 72 -80 119 -157 154 -100 47 -109 45 -50 -8z"/>
<path d="M7240 1943 c1 -19 18 -33 34 -27 13 5 14 9 5 20 -12 15 -39 19 -39 7z"/>
<path d="M3646 1932 c-2 -4 -8 -93 -12 -198 -6 -172 -5 -191 10 -207 10 -9 21
-17 26 -17 11 0 8 53 -4 61 -5 4 -5 13 0 20 4 7 7 30 5 50 -2 34 0 36 23 34
14 -2 43 -17 63 -33 61 -47 104 -67 114 -50 6 9 9 7 9 -8 0 -16 7 -23 30 -26
17 -3 30 -2 30 1 -1 6 -59 50 -148 112 -23 16 -40 34 -37 39 3 6 0 10 -7 10
-7 1 3 9 22 18 19 9 40 28 47 42 7 14 13 21 13 16 0 -6 11 6 25 25 13 19 29
40 35 47 6 7 8 17 5 22 -11 18 -35 11 -44 -13 -11 -29 -99 -119 -133 -136 -14
-7 -31 -10 -37 -7 -7 5 -11 45 -11 107 0 87 -8 117 -24 91z"/>
<path d="M8127 1878 c-2 -35 -7 -132 -11 -216 -6 -129 -4 -156 9 -174 13 -19
15 -20 15 -5 0 10 4 16 9 12 6 -3 9 83 9 220 0 176 -3 225 -13 225 -9 0 -15
-21 -18 -62z"/>
<path d="M4208 1838 c-5 -216 -3 -324 4 -334 5 -7 7 -16 6 -20 -2 -5 0 -10 5
-11 19 -7 24 -1 19 22 -3 19 0 25 14 25 11 0 25 -9 32 -21 11 -18 19 -20 50
-14 107 20 144 100 100 218 -6 15 -14 27 -19 27 -5 0 -9 6 -9 14 0 8 -18 21
-40 30 -41 16 -82 14 -108 -7 -23 -18 -28 3 -31 116 -2 87 -21 50 -23 -45z
m156 -93 c13 -9 29 -28 35 -43 11 -29 22 -160 12 -145 -3 5 -14 1 -23 -8 -16
-17 -16 -18 0 -22 9 -3 -3 -3 -28 0 -25 3 -62 14 -83 25 l-38 19 3 72 3 72 45
22 c55 27 46 26 74 8z"/>
<path d="M6082 1918 c-1 -7 -3 -44 -5 -83 l-3 -70 -74 0 c-50 0 -75 -4 -77
-12 -3 -7 -11 -13 -19 -13 -8 0 -14 -5 -14 -11 0 -6 -9 -24 -21 -40 -15 -21
-21 -45 -21 -79 1 -42 5 -54 29 -74 27 -23 106 -40 157 -34 17 3 19 -4 18 -54
0 -60 6 -72 31 -62 11 4 16 28 19 87 3 45 6 87 8 92 1 6 2 90 1 188 -1 140 -4
177 -14 177 -8 0 -14 -6 -15 -12z m-44 -193 c21 -6 22 -12 22 -90 0 -76 -2
-85 -21 -96 -28 -14 -101 -6 -134 15 -48 32 -22 128 45 165 34 19 41 20 88 6z"/>
<path d="M5165 1888 c-11 -27 -22 -274 -14 -290 5 -9 9 -29 9 -43 0 -36 63
-100 88 -90 9 4 27 10 40 12 12 3 22 10 22 17 0 6 14 12 32 12 18 1 34 6 36
13 5 14 52 15 52 0 0 -30 128 -51 184 -29 46 17 30 31 -27 24 -92 -11 -151 33
-160 118 -1 16 3 22 13 19 29 -6 115 -9 137 -4 15 3 20 10 16 21 -4 8 -2 13 3
9 18 -10 35 9 41 47 5 31 2 41 -22 66 -15 16 -33 26 -40 24 -7 -3 -16 -1 -20
5 -8 14 -47 14 -77 0 -13 -5 -39 -32 -57 -58 -29 -43 -33 -57 -34 -123 -2 -68
-4 -76 -26 -86 -18 -9 -28 -9 -38 -1 -10 9 -13 8 -13 -4 0 -23 -36 -39 -70
-32 -27 6 -50 43 -50 81 0 15 61 44 91 44 12 0 19 7 19 19 0 29 -13 32 -66 16
-27 -8 -50 -15 -52 -15 -1 0 0 51 3 114 4 74 2 117 -5 121 -5 3 -12 0 -15 -7z
m416 -109 c44 -23 5 -90 -54 -96 -21 -2 -47 1 -58 7 -17 9 -23 8 -35 -7 -14
-17 -15 -16 -8 7 16 58 37 92 64 102 19 7 67 1 91 -13z"/>
<path d="M6985 1881 c-10 -18 -23 -266 -14 -283 5 -9 9 -28 9 -41 0 -27 31
-71 60 -87 19 -10 90 12 90 28 0 4 13 7 28 8 27 1 72 30 72 46 0 12 -45 9 -58
-4 -8 -8 -15 -8 -27 2 -12 10 -15 10 -15 -3 0 -23 -36 -39 -70 -32 -24 5 -32
14 -41 47 -11 43 -5 57 27 63 11 2 21 4 24 6 7 3 23 7 38 8 13 1 17 37 4 45
-8 5 -63 -6 -95 -19 -17 -7 -18 -1 -12 109 4 74 3 116 -4 116 -5 0 -12 -4 -16
-9z"/>
<path d="M4620 1839 c0 -4 -8 -5 -17 -2 -13 5 -15 2 -10 -11 5 -13 3 -17 -7
-13 -21 8 -76 -81 -76 -124 0 -64 18 -105 58 -132 50 -34 100 -44 108 -22 5
12 9 13 14 4 14 -22 41 0 66 56 15 31 26 72 26 91 0 48 -26 97 -59 114 -15 8
-35 19 -43 26 -20 15 -60 24 -60 13z m73 -51 c15 -7 27 -17 28 -23 1 -5 3 -20
4 -31 1 -12 6 -27 10 -34 4 -7 3 -15 -2 -19 -5 -3 -16 -24 -25 -46 -20 -50
-70 -82 -105 -66 -63 29 -52 159 20 213 27 21 35 22 70 6z"/>
<path d="M7914 1842 c-15 -11 -53 -76 -68 -118 l-15 -39 0 51 c-1 36 -5 54
-16 58 -17 6 -19 -15 -15 -144 2 -41 3 -100 4 -130 1 -49 3 -55 24 -58 21 -3
22 0 21 60 -1 35 6 93 14 131 8 37 13 67 11 67 -2 0 7 19 19 43 17 31 28 41
42 39 35 -6 40 -21 42 -140 3 -121 7 -147 22 -138 5 4 11 0 14 -6 12 -34 20
13 20 110 -1 91 -4 116 -22 151 -12 23 -30 44 -39 47 -9 3 -24 9 -33 14 -9 4
-20 5 -25 2z"/>
<path d="M7253 1828 c-4 -7 -10 -120 -13 -251 -7 -275 -6 -271 -90 -268 -29 1
-69 10 -90 21 -32 17 -39 17 -44 5 -16 -43 39 -75 129 -75 59 0 69 3 97 29 18
16 33 40 35 53 2 13 5 128 6 257 1 170 -1 235 -10 238 -6 2 -15 -2 -20 -9z"/>
<path d="M5708 1738 c-3 -204 5 -288 27 -267 2 3 5 43 6 90 1 53 7 95 17 114
17 33 67 82 95 91 11 3 17 16 17 34 0 25 -3 28 -22 25 -13 -3 -27 -11 -33 -18
-5 -8 -15 -12 -21 -10 -6 2 -19 -12 -30 -32 -10 -19 -22 -35 -26 -35 -5 0 -8
23 -8 50 0 28 -4 50 -10 50 -6 0 -11 -39 -12 -92z"/>
<path d="M6255 1819 c-12 -6 -36 -32 -54 -59 -31 -45 -34 -57 -35 -124 -1 -69
1 -77 28 -105 16 -17 44 -36 63 -42 39 -13 145 -9 155 6 16 21 6 25 -45 19
-68 -8 -119 14 -141 61 -22 46 -25 81 -6 77 37 -9 124 -10 143 -2 12 5 16 9 9
9 -7 1 -11 5 -7 11 3 5 12 7 20 4 15 -6 35 31 35 66 0 25 -50 82 -66 76 -7 -3
-16 -1 -19 4 -8 13 -54 12 -80 -1z m108 -41 c42 -22 1 -92 -57 -96 -20 -2 -46
2 -57 9 -17 9 -23 8 -30 -2 -16 -26 -20 -1 -5 32 18 41 36 64 56 71 18 7 67
-1 93 -14z"/>
<path d="M6769 1738 c-3 -204 5 -288 26 -267 2 3 5 43 6 90 1 46 8 95 14 109
17 33 85 100 102 100 17 0 17 47 1 53 -19 7 -48 -11 -49 -31 0 -10 -3 -12 -6
-4 -8 20 -19 14 -39 -23 -10 -19 -22 -35 -26 -35 -5 0 -8 23 -8 50 0 28 -4 50
-10 50 -6 0 -11 -38 -11 -92z"/>
<path d="M7426 1819 c-26 -16 -56 -47 -56 -60 0 -6 -6 -17 -14 -24 -18 -18
-30 -133 -18 -165 13 -32 49 -66 87 -80 32 -12 155 -10 155 2 0 18 -8 21 -72
23 -84 2 -103 19 -132 113 -7 22 -6 22 61 18 85 -6 114 0 106 22 -4 8 -2 13 3
9 18 -10 35 9 41 47 5 32 2 41 -23 67 -15 16 -34 27 -41 25 -7 -3 -15 -1 -18
4 -8 13 -55 12 -79 -1z m105 -40 c44 -23 4 -93 -55 -97 -20 -2 -46 2 -57 9
-17 9 -23 8 -30 -2 -16 -26 -19 -2 -4 32 18 42 35 64 55 71 19 7 67 1 91 -13z"/>
<path d="M4120 1800 c0 -14 -6 -21 -17 -19 -45 4 -65 -4 -101 -40 -98 -99 -74
-251 39 -251 21 0 41 5 44 10 13 22 25 8 25 -30 0 -22 4 -40 9 -40 24 0 30 36
33 205 3 165 2 180 -14 183 -13 2 -18 -3 -18 -18z m-8 -142 c-4 -102 -22 -138
-68 -138 -35 0 -74 54 -74 103 0 61 63 124 125 126 19 1 20 -4 17 -91z"/>
<path d="M4857 1783 c-8 -14 -19 -91 -19 -135 0 -60 35 -138 62 -138 11 0 20
-4 20 -10 0 -12 60 -13 79 -1 23 15 40 2 47 -35 4 -22 10 -31 18 -27 6 4 16 8
21 8 6 0 9 9 7 20 -1 11 -5 81 -9 155 -4 100 -9 140 -21 152 -8 10 -18 15 -23
13 -4 -3 -7 -55 -7 -117 1 -104 0 -112 -21 -129 -39 -32 -75 -19 -113 38 -14
22 -18 48 -18 121 0 80 -8 110 -23 85z"/>
<path d="M6483 1773 c-4 -9 -7 -41 -7 -70 -1 -29 -4 -53 -7 -53 -10 0 2 -52
22 -97 13 -30 25 -43 39 -43 11 0 20 -4 20 -10 0 -12 55 -13 78 -1 20 10 47 1
48 -16 1 -7 2 -23 3 -34 1 -18 3 -19 16 -9 8 7 15 9 15 4 0 -4 4 -4 9 2 6 5 6
31 0 64 -4 30 -9 98 -10 151 -1 80 -4 101 -19 114 -25 23 -32 7 -30 -68 5
-135 2 -155 -25 -173 -35 -23 -69 -11 -100 33 -22 34 -25 48 -25 130 0 57 -4
93 -10 93 -6 0 -14 -8 -17 -17z"/>
<path d="M7674 1522 c-15 -10 1 -52 20 -52 16 0 31 34 21 50 -7 12 -25 13 -41
2z"/>
<path d="M6970 1331 c0 -17 18 -21 24 -6 3 9 0 15 -9 15 -8 0 -15 -4 -15 -9z"/>
</g>
</svg>
